<?xml version='1.0' encoding='ascii'?>
<svg xmlns="http://www.w3.org/2000/svg" height="540" version="1.1" width="960">
    <g id="RenderLayer_LineSet" inkscape:groupmode="lineset" inkscape:label="RenderLayer_LineSet" xmlns:inkscape="http://www.inkscape.org/namespaces/inkscape">
        <g id="strokes" inkscape:groupmode="layer" inkscape:label="strokes" xmlns:inkscape="http://www.inkscape.org/namespaces/inkscape">
            <path d=" M 585.000, 223.170 575.000, 223.170 565.000, 223.170 555.000, 223.170 545.000, 223.170 535.000, 223.170 525.000, 223.170 515.000, 223.170 505.000, 223.170 495.000, 223.170 485.000, 223.170 475.000, 223.170 465.000, 223.170 455.000, 223.170 445.000, 223.170 435.000, 223.170 425.000, 223.170 415.000, 223.170 405.000, 223.170 395.000, 223.170 385.000, 223.170 375.000, 223.170 374.078, 223.667 365.456, 228.732 356.833, 233.796 348.211, 238.861 339.588, 243.926 330.966, 248.991 322.344, 254.056 313.721, 259.121 305.099, 264.186 296.476, 269.250 295.200, 270.000 303.823, 275.065 312.445, 280.130 321.068, 285.195 329.690, 290.259 338.312, 295.324 346.935, 300.389 355.557, 305.454 364.180, 310.519 372.802, 315.584 374.078, 316.333 375.000, 316.830 385.000, 316.830 395.000, 316.830 405.000, 316.830 415.000, 316.830 425.000, 316.830 435.000, 316.830 445.000, 316.830 455.000, 316.830 465.000, 316.830 475.000, 316.830 485.000, 316.830 495.000, 316.830 505.000, 316.830 515.000, 316.830 525.000, 316.830 535.000, 316.830 545.000, 316.830 555.000, 316.830 565.000, 316.830 575.000, 316.830 585.000, 316.830 585.922, 316.333 594.545, 311.270 603.168, 306.206 611.791, 301.142 620.414, 296.079 629.037, 291.015 637.661, 285.951 646.284, 280.887 654.907, 275.824 663.530, 270.760 664.808, 270.010 656.186, 264.944 647.563, 259.879 638.941, 254.814 630.319, 249.749 621.697, 244.683 613.074, 239.618 604.452, 234.553 595.830, 229.487 587.208, 224.422 585.922, 223.667 585.000, 223.170 " fill="none" stroke="rgb(0, 0, 0)" stroke-linecap="butt" stroke-linejoin="bevel" stroke-opacity="1.0" stroke-width="3.0" />
        </g>
    </g>
</svg>
